<svg xmlns="http://www.w3.org/2000/svg" viewBox="0 0 1000 900"><defs><linearGradient id="silver" x1="0" x2="1" y2=".4"><stop stop-color="#262826"/><stop offset=".2" stop-color="#d3d3c9"/><stop offset=".36" stop-color="#fcfcf1"/><stop offset=".5" stop-color="#5e625c"/><stop offset=".68" stop-color="#191d19"/><stop offset=".84" stop-color="#c7cbbf"/><stop offset="1" stop-color="#53574e"/></linearGradient><linearGradient id="edge"><stop stop-color="#f4f1e4"/><stop offset="1" stop-color="#707369"/></linearGradient></defs><path fill="#b8b9a9" d="M0 0h1000v900H0z"/><g fill="none" stroke="#444b3c" opacity=".18"><path d="M80 0v900M920 0v900M0 80h1000M0 820h1000"/><circle cx="500" cy="450" r="325"/></g><g transform="translate(500 450) rotate(-19)"><path d="M-270-245H205L70-45l170 275H-190L-65 42z" fill="url(#silver)"/><path d="M-270-245-65 42-190 230l100-245z" fill="#292e26"/><path d="M205-245 70-45 240 230 75 105 20-45z" fill="url(#edge)"/><path d="M-270-245H205M70-45 240 230H-190" stroke="#fffef0" stroke-opacity=".7" fill="none"/><path d="M-190 230 75 105 240 230" fill="#535b4c"/></g><g font-family="monospace" font-size="12" letter-spacing="2" fill="#313b2a"><text x="42" y="852">S / 002</text><text x="732" y="852">FORM WITHOUT LIMITS</text></g></svg>
